<svg xmlns="http://www.w3.org/2000/svg" xmlns:xlink="http://www.w3.org/1999/xlink" width="500" zoomAndPan="magnify" viewBox="0 0 375 374.999991" height="500" preserveAspectRatio="xMidYMid meet" version="1.0"><defs><g/></defs><g fill="#000000" fill-opacity="1"><g transform="translate(110.52563, 257.77781)"><g><path d="M 153.875 27.625 C 140.425781 27.625 129.414062 23.335938 120.84375 14.765625 C 114.488281 8.410156 110.304688 0.421875 108.296875 -9.203125 C 98.242188 -1.585938 85.910156 2.21875 71.296875 2.21875 C 59.753906 2.21875 49.242188 -0.289062 39.765625 -5.3125 C 30.296875 -10.34375 22.890625 -17.25 17.546875 -26.03125 C 12.203125 -34.820312 9.53125 -44.722656 9.53125 -55.734375 C 9.53125 -66.742188 12.203125 -76.664062 17.546875 -85.5 C 22.890625 -94.34375 30.269531 -101.195312 39.6875 -106.0625 C 49.113281 -110.9375 59.648438 -113.375 71.296875 -113.375 C 85.910156 -113.375 98.773438 -109.773438 109.890625 -102.578125 L 113.0625 -80.1875 L 111.640625 -80.1875 C 108.460938 -92.46875 101.257812 -100.832031 90.03125 -105.28125 C 84.53125 -107.5 78.285156 -108.609375 71.296875 -108.609375 C 57.003906 -108.609375 45.117188 -103.632812 35.640625 -93.6875 C 26.171875 -83.738281 21.4375 -71.113281 21.4375 -55.8125 C 21.4375 -40.519531 26.195312 -27.84375 35.71875 -17.78125 C 45.25 -7.726562 57.109375 -2.648438 71.296875 -2.546875 C 78.179688 -2.546875 84.742188 -3.757812 90.984375 -6.1875 C 97.234375 -8.625 102.582031 -12.015625 107.03125 -16.359375 L 107.03125 -44.46875 C 107.03125 -46.789062 106.34375 -48.5625 104.96875 -49.78125 C 103.59375 -51 101.632812 -51.609375 99.09375 -51.609375 L 96.546875 -51.609375 L 96.546875 -53.203125 L 127.671875 -53.203125 L 127.671875 -51.609375 L 125.296875 -51.609375 C 122.648438 -51.609375 120.632812 -51 119.25 -49.78125 C 117.875 -48.5625 117.238281 -46.789062 117.34375 -44.46875 L 117.34375 -20.015625 C 117.976562 -3.285156 123.429688 8.675781 133.703125 15.875 C 140.898438 20.957031 150.21875 23.5 161.65625 23.5 C 166.414062 23.5 171.601562 23.023438 177.21875 22.078125 L 177.375 23.65625 C 168.90625 26.300781 161.070312 27.625 153.875 27.625 Z M 153.875 27.625 "/></g></g></g><g fill="#000000" fill-opacity="1"><g transform="translate(160.572973, 241.631675)"><g><path d="M -12.546875 21.4375 C -9.691406 22.382812 -6.859375 22.859375 -4.046875 22.859375 C -1.242188 22.859375 1.6875 22.273438 4.75 21.109375 C 7.820312 19.953125 10.628906 18.128906 13.171875 15.640625 C 15.710938 13.148438 17.800781 9.414062 19.4375 4.4375 C 21.082031 -0.53125 21.90625 -6.40625 21.90625 -13.1875 L 21.90625 -99.5625 C 21.800781 -102.3125 20.769531 -104.664062 18.8125 -106.625 C 16.851562 -108.582031 14.5 -109.5625 11.75 -109.5625 L 9.6875 -109.5625 L 9.6875 -111.15625 L 44.453125 -111.15625 L 44.453125 -109.5625 L 42.390625 -109.5625 C 39.640625 -109.5625 37.285156 -108.609375 35.328125 -106.703125 C 33.367188 -104.804688 32.335938 -102.425781 32.234375 -99.5625 L 32.234375 -12.703125 C 32.234375 -5.503906 31.117188 0.789062 28.890625 6.1875 C 26.671875 11.59375 23.867188 15.671875 20.484375 18.421875 C 14.128906 23.398438 7.085938 25.890625 -0.640625 25.890625 C -5.191406 25.890625 -9.375 24.988281 -13.1875 23.1875 Z M -12.546875 21.4375 "/></g></g></g></svg>